<?xml version="1.0" standalone="no"?>
<!DOCTYPE svg PUBLIC "-//W3C//DTD SVG 20010904//EN"
 "http://www.w3.org/TR/2001/REC-SVG-20010904/DTD/svg10.dtd">
<svg version="1.0" xmlns="http://www.w3.org/2000/svg"
 width="175.000000pt" height="170.000000pt" viewBox="0 0 175.000000 170.000000"
 preserveAspectRatio="xMidYMid meet">

<g transform="translate(0.000000,170.000000) scale(0.100000,-0.100000)"
fill="#000000" stroke="none">
<path d="M147 1423 c-4 -3 -7 -46 -7 -95 l0 -88 340 0 341 0 -3 93 -3 92 -331
3 c-182 1 -333 -1 -337 -5z"/>
<path d="M1107 1424 c-4 -4 -7 -47 -7 -96 l0 -88 205 0 206 0 -3 93 -3 92
-196 3 c-107 1 -198 -1 -202 -4z"/>
<path d="M1300 833 c0 -225 -6 -267 -46 -304 -23 -22 -36 -24 -130 -27 l-104
-4 0 -104 0 -104 83 0 c153 0 261 40 331 121 62 73 68 105 74 382 l4 247 -106
0 -106 0 0 -207z"/>
<path d="M372 653 l3 -358 100 0 100 0 3 358 2 357 -105 0 -105 0 2 -357z"/>
</g>
</svg>
